<?xml version="1.0" encoding="UTF-8"?>
<svg width="300px" height="300px" viewBox="0 0 300 300" version="1.1" xmlns="http://www.w3.org/2000/svg" xmlns:xlink="http://www.w3.org/1999/xlink">
    <title>Bathroom Buddy Splash Logo</title>
    <desc></desc>
    <g id="splash_logo">
        <g id="crosshairs" fill="#222222">
            <path d="M27.9545455,163.636364 L0,163.636364 L0,136.363636 L27.9545455,136.363636 C34.0909091,79.5 79.5,34.0909091 136.363636,27.9545455 L136.363636,0 L163.636364,0 L163.636364,27.9545455 C220.5,34.0909091 265.909091,79.5 272.045455,136.363636 L300,136.363636 L300,163.636364 L272.045455,163.636364 C265.909091,220.5 220.5,265.909091 163.636364,272.045455 L163.636364,300 L136.363636,300 L136.363636,272.045455 C79.5,265.909091 34.0909091,220.5 27.9545455,163.636364 L27.9545455,163.636364 Z M150,54.5454545 C97.2819102,54.5454545 54.5454545,97.2819102 54.5454545,150 C54.5454545,202.71809 97.2819102,245.454545 150,245.454545 C202.71809,245.454545 245.454545,202.71809 245.454545,150 C245.454545,97.2819102 202.71809,54.5454545 150,54.5454545 L150,54.5454545 Z" id="Shape"></path>
        </g>
        <g id="unisex_toilets_symbols" transform="translate(76.016260, 85.365854)">
            <ellipse fill="#FE5000" cx="29.658915" cy="10.5427579" rx="10.5420333" ry="10.5335788"></ellipse>
            <path d="M28.1992491,87.8428705 L28.1992491,124.467285 C28.1441078,131.121257 18.2313222,131.121257 18.1437448,124.467285 L18.1437448,87.8428705 L5.16890267,87.8428705 L19.1168563,38.902353 L16.8462595,38.902353 L8.73698129,66.7757537 C6.68695926,72.940317 -1.6558689,70.4446769 0.303335069,63.8587814 L9.38572167,33.7165991 C10.4301984,30.2551103 14.7962325,24.1427337 22.3605681,23.9933158 L29.172362,23.9933158 L36.9572736,23.9933158 C44.3036324,24.1427337 48.6878324,30.3069711 49.9321196,33.7165991 L59.014512,63.8587814 C60.8569418,70.4122605 52.5802837,73.102372 50.58086,66.7757537 L42.4715827,38.902353 L39.8766121,38.902353 L54.1489456,87.8428705 L40.8497249,87.8428705 L40.8497249,124.467285 C40.9535254,131.121257 31.0796675,131.08884 31.1185899,124.467285 L31.1185899,87.8428705 L28.1992491,87.8428705 Z" id="Shape" fill="#FE5000"></path>
            <ellipse fill="#FE5000" cx="117.161074" cy="10.5427579" rx="10.5420333" ry="10.5335788"></ellipse>
            <path d="M105.970293,23.9933158 C97.8642636,23.9933158 92.6710701,31.0060654 92.6710701,37.9300206 L92.6710701,70.3409642 C92.5964643,76.674055 101.722977,76.674055 101.753472,70.3409642 L101.753472,40.5228942 L104.024063,40.5228942 L104.024063,122.846735 C103.883286,131.442126 116.038769,131.195803 116.025796,122.846735 L116.025796,74.8784958 L117.972026,74.8784958 L117.972026,122.846735 C118.130968,131.195803 130.350023,131.442126 130.298121,122.846735 L130.298121,40.5228942 L132.568721,40.5228942 L132.568721,70.3409642 C132.461682,76.7226751 141.540831,76.7226751 141.651104,70.3409642 L141.651104,37.9300206 C141.521371,31.0060654 136.133559,24.1174505 128.027529,23.9933158 L105.970293,23.9933158 Z" id="Shape" fill="#FE5000"></path>
            <rect id="Rectangle-path" fill="#222222" x="67.8861789" y="1.2195122" width="12.0032472" height="127.375509"></rect>
        </g>
    </g>
</svg>